PathFileType	4	(X/Y/Z)	5_coords_data.trc
DataRate	CameraRate	NumFrames	NumMarkers	Units	OrigDataRate	OrigDataStartFrame	OrigNumFrames
30.0	30.0	6	21	m	30.0	30	59
Frame#	Time	THUMB_TIP	THUMB_IP	THUMB_MCP	THUMB_CMC	INDEX_TIP	INDEX_DIP	INDEX_PIP	INDEX_MCP	MIDDLE_TIP	MIDDLE_DIP	MIDDLE_PIP	MIDDLE_MCP	RING_TIP	RING_DIP	RING_PIP	RING_MCP	PINKY_TIP	PINKY_DIP	PINKY_PIP	PINKY_MCP	WRIST
X1	Y1	Z1	X2	Y2	Z2	X3	Y3	Z3	X4	Y4	Z4	X5	Y5	Z5	X6	Y6	Z6	X7	Y7	Z7	X8	Y8	Z8	X9	Y9	Z9	X10	Y10	Z10	X11	Y11	Z11	X12	Y12	Z12	X13	Y13	Z13	X14	Y14	Z14	X15	Y15	Z15	X16	Y16	Z16	X17	Y17	Z17	X18	Y18	Z18	X19	Y19	Z19	X20	Y20	Z20	X21	Y21	Z21
29	0.9666666666666667	-0.02828820037841797	-0.15166900634765626	0.970656005859375	-0.02365239906311035	-0.131625	0.9869840087890625	-0.02529159927368164	-0.12149600219726563	1.016489990234375	-0.021766599655151368	-0.09221600341796875	1.0326300048828125	-0.008924639701843262	-0.09747630310058594	1.0193099975585938	-0.004215869903564453	-0.10125199890136719	0.9987379760742188	-0.008589810371398925	-0.10661299896240234	0.97606298828125	-0.04835060119628906	-0.10593299865722657	0.9830579833984375	-0.01181700038909912	-0.0851675033569336	1.0174400024414063	-0.0025650498867034912	-0.0846353988647461	0.9988380126953125	-0.008062049865722657	-0.08707279968261719	0.9713070068359375	-0.049877601623535155	-0.08639859771728516	0.9790670166015625	-0.01684239959716797	-0.07007869720458984	1.0158499755859376	-0.005143430233001709	-0.06862200164794922	1.0005499877929687	-0.007338809967041016	-0.06784880065917968	0.9745910034179688	-0.047072399139404295	-0.0677155990600586	0.9803820190429687	-0.018530399322509765	-0.05613930130004883	1.0126099853515624	-0.0072814497947692874	-0.05464059829711914	0.9987509765625	-0.009501729965209961	-0.05249250030517578	0.9814630126953126	-0.038863601684570315	-0.0499385986328125	0.9835789794921875	-0.03411759948730469	-0.06171950149536133	1.04852001953125
30	1.0	-0.02806410026550293	-0.15177200317382813	0.9709000244140625	-0.02337849998474121	-0.13170599365234376	0.9872169799804688	-0.024973600387573243	-0.12154499816894532	1.01672998046875	-0.02143989944458008	-0.09246849822998048	1.032699951171875	-0.008686420440673828	-0.09759200286865234	1.0193900146484376	-0.0038711199760437013	-0.10131700134277344	0.9989650268554687	-0.00830247974395752	-0.10671499633789062	0.9762839965820312	-0.04827159881591797	-0.10593399810791015	0.9833200073242188	-0.011281599998474121	-0.08509369659423828	1.0180900268554687	-0.002148880004882812	-0.08474490356445312	0.9990369873046875	-0.007760759830474854	-0.08717960357666016	0.971531005859375	-0.04959820175170898	-0.08647959899902344	0.9793319702148438	-0.015774499893188475	-0.07015380096435547	1.0166699829101562	-0.004757609844207764	-0.06872239685058594	1.0006799926757812	-0.006978750228881836	-0.06796790313720703	0.9747869873046875	-0.046757999420166015	-0.06779640197753906	0.9805709838867187	-0.018179800033569334	-0.056157001495361326	1.0131099853515626	-0.0070036301612854	-0.05474869918823242	0.9990170288085938	-0.009176199913024902	-0.05260229873657227	0.9816079711914063	-0.03851060104370117	-0.05004930114746094	0.9837349853515625	-0.03378839874267578	-0.061780601501464846	1.0486400146484376
31	1.0333333333333334	-0.027625900268554687	-0.15185600280761719	0.9711409912109376	-0.02296649932861328	-0.13181199645996095	0.9873889770507812	-0.024572700500488282	-0.12162000274658204	1.0169299926757813	-0.021086999893188477	-0.09254570007324218	1.0329300537109376	-0.008250490188598632	-0.09760140228271484	1.0197999877929687	-0.003550709962844848	-0.10140399932861328	0.9992440185546875	-0.007821760177612304	-0.10679499816894532	0.9766339721679688	-0.047759899139404295	-0.10606700134277344	0.9833920288085938	-0.010978500366210937	-0.08514959716796874	1.0183900146484375	-0.0017028700113296499	-0.08480989837646484	0.9994439697265625	-0.007271049976348877	-0.08729840087890625	0.9718519897460938	-0.04917539978027344	-0.0866052017211914	0.979448974609375	-0.015602499961853027	-0.07011959838867188	1.016739990234375	-0.004340459823608398	-0.06879830169677735	1.0010900268554688	-0.006585390090942383	-0.06806279754638672	0.975031005859375	-0.04638249969482422	-0.06790480041503906	0.9807680053710938	-0.01797629928588867	-0.05618849945068359	1.01327001953125	-0.0066212000846862795	-0.05480989837646484	0.9992589721679688	-0.008784480094909668	-0.05268000030517578	0.981822021484375	-0.03815409851074219	-0.0501682014465332	0.98393701171875	-0.03348059844970703	-0.06185900115966797	1.0488499755859375
32	1.0666666666666667	-0.026972700119018554	-0.15195899963378906	0.9713280029296875	-0.022446199417114256	-0.13186099243164062	0.987635986328125	-0.024149099349975587	-0.12169300079345703	1.0171300048828125	-0.020631999969482423	-0.09266329956054688	1.0330400390625	-0.007815869808197021	-0.09774130249023437	1.0200800170898439	-0.00301402997970581	-0.10151599884033204	0.9994580078125	-0.0073378801345825185	-0.10689299774169922	0.976843017578125	-0.047367401123046875	-0.10620200347900391	0.9836719970703125	-0.010687600135803223	-0.08527220153808594	1.0184600219726563	-0.001375409960746765	-0.08492430114746094	0.9995150146484375	-0.006837339878082276	-0.08740290069580078	0.9720430297851562	-0.048718799591064454	-0.08671880340576171	0.9796890258789063	-0.015320199966430664	-0.07019940185546875	1.01675	-0.003910949945449829	-0.06887580108642578	1.0013499755859374	-0.00610329008102417	-0.06819219970703125	0.9753350219726562	-0.04588690185546875	-0.06799849700927735	0.98093701171875	-0.017387500762939455	-0.0562952995300293	1.013510009765625	-0.00617363977432251	-0.05492100143432617	0.9995150146484375	-0.008335630416870117	-0.05278110122680664	0.9820579833984375	-0.037679500579833984	-0.0502411994934082	0.984135986328125	-0.03314659881591797	-0.06190129852294922	1.04906005859375
33	1.1	-0.026625999450683592	-0.15210000610351562	0.9715430297851563	-0.02206010055541992	-0.13202000427246094	0.9878060302734375	-0.023864200592041016	-0.12190599822998047	1.0173699951171875	-0.02034510040283203	-0.09276509857177734	1.0332900390625	-0.008125249862670898	-0.09800189971923828	1.0199500122070313	-0.002659670114517212	-0.10166799926757812	0.9996389770507812	-0.006979330062866211	-0.10700099945068359	0.9770709838867188	-0.046937999725341795	-0.10637699890136719	0.98381298828125	-0.010202199935913085	-0.08542030334472656	1.01897998046875	-0.0009433959722518921	-0.08504740142822266	0.9998800048828125	-0.006465109825134277	-0.0875302963256836	0.9722340087890625	-0.04837319946289063	-0.08687210083007812	0.979833984375	-0.015025400161743164	-0.07033580017089844	1.0171900024414062	-0.003641410112380981	-0.06901069641113282	1.0014600219726562	-0.005771609783172607	-0.06830169677734375	0.9755399780273437	-0.04560490036010742	-0.06817230224609375	0.9811370239257813	-0.017123600006103516	-0.05652349853515625	1.0135499877929688	-0.005863150119781494	-0.05501559829711914	0.9996680297851562	-0.008022139549255371	-0.05292259979248047	0.98225	-0.03738629913330078	-0.050404098510742186	0.984333984375	-0.03295989990234375	-0.06206549835205078	1.049239990234375
34	1.1333333333333333	-0.02648579978942871	-0.15230999755859376	0.971676025390625	-0.02188640022277832	-0.1322209930419922	0.987968017578125	-0.023586999893188475	-0.12203099822998047	1.0174600219726562	-0.020125699996948243	-0.09295079803466796	1.0333599853515625	-0.0073516697883605955	-0.0980248031616211	1.0204099731445313	-0.0025349500179290773	-0.10183000183105469	0.9998330078125	-0.00680456018447876	-0.10726599884033203	0.9771510009765625	-0.04671979904174805	-0.10654599761962891	0.9840540161132812	-0.010156900405883788	-0.0856720962524414	1.01902001953125	-0.000753468990325927	-0.08519290161132813	1.0000399780273437	-0.006205930233001709	-0.08775890350341797	0.9723930053710937	-0.048136798858642575	-0.08707289886474609	0.979989013671875	-0.014991299629211426	-0.07048549652099609	1.016969970703125	-0.00344854998588562	-0.0691792984008789	1.0015900268554687	-0.00560306978225708	-0.06849410247802734	0.9755659790039063	-0.04535089874267578	-0.06836840057373048	0.981239013671875	-0.017047199249267578	-0.05663669967651367	1.013780029296875	-0.005640490055084229	-0.055227901458740236	0.9997880249023438	-0.007790070056915283	-0.05312530136108398	0.9823319702148438	-0.03712570190429688	-0.050627601623535155	0.9843729858398438	-0.0327333984375	-0.0621702995300293	1.0493599853515625
